<?xml version="1.0" standalone="no"?>
<!DOCTYPE svg PUBLIC "-//W3C//DTD SVG 20010904//EN"
 "http://www.w3.org/TR/2001/REC-SVG-20010904/DTD/svg10.dtd">
<svg version="1.0" xmlns="http://www.w3.org/2000/svg"
 width="276.000000pt" height="276.000000pt" viewBox="0 0 276.000000 276.000000"
 preserveAspectRatio="xMidYMid meet">
<metadata>
Created by potrace 1.14, written by Peter Selinger 2001-2017
</metadata>
<g transform="translate(0.000000,276.000000) scale(0.100000,-0.100000)"
fill="#000000" stroke="none">
<path d="M145 2506 c-60 -31 -88 -92 -98 -208 -1 -10 -5 -18 -10 -18 -14 0 0
-166 18 -224 8 -27 15 -60 15 -73 0 -14 11 -58 25 -99 14 -41 24 -78 24 -82
-1 -4 -1 -9 1 -12 1 -3 4 -16 6 -30 3 -14 9 -26 14 -28 6 -2 10 -10 10 -19 0
-8 8 -27 18 -41 10 -15 19 -40 21 -57 1 -16 7 -34 12 -40 5 -5 9 -15 9 -23 0
-29 95 -100 134 -100 5 0 12 -5 16 -12 7 -11 34 -16 60 -9 8 2 14 -1 13 -7 -1
-6 4 -11 12 -11 7 0 11 6 8 13 -2 6 0 14 4 17 5 3 10 -8 11 -24 2 -19 -2 -28
-8 -24 -5 3 -10 2 -10 -4 0 -5 -14 -23 -31 -40 -17 -17 -32 -37 -33 -44 -2
-15 -41 -71 -72 -106 -12 -13 -20 -30 -17 -37 3 -8 1 -14 -4 -14 -5 0 -18 -19
-28 -42 -15 -33 -19 -64 -18 -128 2 -105 7 -137 29 -161 9 -11 14 -19 10 -19
-4 0 5 -12 19 -27 14 -15 25 -31 25 -35 0 -5 5 -8 10 -8 6 0 23 -12 39 -27 16
-16 51 -39 78 -53 26 -14 51 -29 54 -33 3 -5 10 -9 15 -9 5 0 19 -4 32 -9 13
-5 31 -9 40 -9 10 0 42 -9 72 -20 80 -30 87 -31 242 -43 9 -1 15 -4 13 -7 -2
-4 5 -14 17 -24 17 -15 22 -16 29 -5 7 12 9 12 9 0 0 -7 6 -11 15 -7 8 3 15 1
15 -4 0 -6 9 -6 25 0 16 6 26 6 31 -1 4 -6 11 -6 20 2 8 6 14 8 14 3 0 -5 5
-1 11 9 6 9 14 15 20 12 5 -4 9 -2 9 2 0 5 7 18 16 29 8 10 12 13 8 5 -4 -9
-2 -12 7 -9 8 2 15 17 17 31 2 16 9 27 19 27 10 0 13 6 9 16 -4 10 -2 13 6 8
8 -5 9 -2 4 11 -5 14 -4 16 7 7 10 -9 14 -8 14 3 0 8 -5 15 -10 15 -20 0 3 13
27 15 15 2 27 -3 30 -12 5 -11 2 -13 -10 -9 -15 6 -15 4 -3 -11 13 -15 12 -16
-6 -9 -18 6 -17 5 3 -15 18 -16 21 -24 11 -29 -7 -5 -18 -6 -26 -3 -7 3 -13 0
-13 -7 0 -6 -4 -8 -10 -5 -6 3 -7 -1 -4 -9 3 -9 1 -16 -5 -16 -6 0 -11 -5 -11
-11 0 -6 -9 -23 -19 -38 -11 -15 -23 -39 -26 -54 -4 -15 -11 -27 -15 -27 -4 0
-10 -14 -12 -31 l-5 -30 23 28 c13 15 23 32 24 37 0 5 7 14 16 20 8 6 16 18
18 26 1 8 10 35 20 60 12 33 23 46 38 47 11 1 18 -1 15 -4 -8 -7 16 -32 26
-26 4 2 7 1 6 -4 -4 -24 3 -43 17 -43 8 0 13 -4 10 -9 -8 -12 15 -30 43 -34
13 -2 26 -9 31 -17 4 -7 13 -9 19 -6 6 4 11 2 11 -3 0 -6 5 -11 11 -11 6 0 24
-14 41 -30 16 -17 38 -30 48 -30 10 0 22 -4 25 -10 3 -5 15 -10 26 -10 10 0
19 -4 19 -9 0 -5 44 -8 98 -7 104 2 218 28 206 48 -4 6 -2 8 4 5 13 -9 44 2
37 14 -3 4 3 13 13 18 11 6 25 24 32 41 7 16 16 30 21 30 5 0 9 5 9 11 0 5 9
29 19 52 22 49 45 153 37 166 -4 5 -3 12 2 15 6 4 9 71 2 71 -5 0 -13 45 -13
83 -1 23 -6 42 -12 42 -5 0 -3 5 5 10 13 9 13 10 0 10 -13 0 -13 1 0 10 11 7
11 10 2 10 -7 0 -11 4 -8 8 2 4 1 14 -4 22 -5 9 -4 20 3 29 10 12 9 13 -3 6
-12 -7 -13 -6 -2 6 11 12 16 10 33 -11 12 -14 18 -19 14 -12 -7 13 11 17 19 4
21 -34 166 16 166 57 0 5 6 14 14 18 8 4 16 14 18 22 3 12 23 38 73 92 8 9 15
19 15 24 0 4 12 22 28 40 15 18 40 48 55 66 16 19 28 38 27 43 -1 5 2 12 7 15
6 3 25 30 45 58 19 29 37 51 39 48 3 -2 6 6 6 18 1 12 8 26 16 32 8 5 19 27
26 48 7 20 16 35 20 33 4 -3 6 10 6 27 0 18 2 37 4 42 3 6 7 15 8 20 24 94 23
183 -4 202 -9 7 -13 13 -7 13 5 0 -17 14 -48 30 -75 40 -159 51 -348 45 -147
-5 -245 -11 -245 -15 0 -1 -13 -4 -30 -5 -51 -5 -98 -15 -150 -32 -27 -10 -52
-18 -55 -18 -3 -1 -18 -7 -33 -13 -16 -7 -30 -12 -33 -12 -3 0 -14 -9 -26 -20
-28 -26 -35 -25 -33 2 1 13 -5 29 -13 37 -13 13 -11 18 14 37 15 13 31 21 36
18 4 -3 8 0 8 7 0 7 -10 9 -29 6 -27 -6 -28 -4 -25 24 2 17 5 34 7 37 2 4 -2
25 -9 47 -7 22 -13 34 -13 28 -1 -7 -7 -13 -14 -13 -17 0 -49 -34 -41 -43 4
-4 -1 -9 -10 -13 -9 -3 -14 -10 -11 -14 3 -5 -2 -16 -11 -24 -8 -9 -12 -16 -7
-16 4 0 -3 -7 -15 -16 -21 -14 -23 -13 -47 13 -15 17 -23 21 -19 11 3 -10 10
-18 14 -18 23 0 16 -34 -14 -66 -33 -35 -35 -36 -57 -20 -13 9 -19 16 -14 16
15 0 -65 78 -141 136 -39 29 -76 54 -83 54 -6 0 -11 3 -11 8 0 4 -15 15 -33
26 -17 10 -48 28 -67 39 -19 11 -53 30 -75 42 -22 12 -63 36 -90 52 -81 48
-273 136 -345 159 -25 8 -59 19 -77 25 -18 5 -41 12 -53 14 -11 3 -29 7 -40 9
-11 3 -24 7 -29 10 -29 18 -217 27 -246 12z"/>
<path d="M1050 2444 c0 -3 54 -60 120 -126 66 -66 120 -117 120 -113 0 3 17
-10 38 -29 83 -80 137 -126 145 -126 9 0 -47 55 -165 162 -80 72 -97 90 -128
128 -44 56 -74 87 -97 99 -24 12 -33 14 -33 5z"/>
<path d="M1709 2243 c-13 -16 -12 -17 4 -4 9 7 17 15 17 17 0 8 -8 3 -21 -13z"/>
<path d="M1682 2214 c4 -3 2 -19 -2 -35 -6 -18 -5 -31 2 -35 7 -4 8 -2 4 4 -4
7 -3 12 3 12 6 0 8 7 5 15 -4 9 1 18 11 21 13 5 14 9 3 15 -15 10 -34 12 -26
3z"/>
<path d="M2211 2096 c-49 -16 -88 -33 -86 -36 3 -4 35 -1 72 7 37 8 77 16 88
18 11 2 21 4 23 5 3 4 20 7 37 9 8 0 15 7 15 15 0 22 -49 17 -149 -18z"/>
<path d="M1478 2033 c7 -3 16 -2 19 1 4 3 -2 6 -13 5 -11 0 -14 -3 -6 -6z"/>
<path d="M1830 2010 c0 -5 5 -10 11 -10 5 0 7 5 4 10 -3 6 -8 10 -11 10 -2 0
-4 -4 -4 -10z"/>
<path d="M1795 2000 c-3 -5 -1 -10 4 -10 6 0 11 5 11 10 0 6 -2 10 -4 10 -3 0
-8 -4 -11 -10z"/>
</g>
</svg>
