<svg xmlns="http://www.w3.org/2000/svg" width="368" height="368" version="1.0" viewBox="0 0 276 276"><path d="M14.5 25.4c-6 3.1-8.8 9.2-9.8 20.8-.1 1-.5 1.8-1 1.8-1.4 0 0 16.6 1.8 22.4.8 2.7 1.5 6 1.5 7.3 0 1.4 1.1 5.8 2.5 9.9 1.4 4.1 2.4 7.8 2.4 8.2-.1.4-.1.9.1 1.2.1.3.4 1.6.6 3 .3 1.4.9 2.6 1.4 2.8.6.2 1 1 1 1.9 0 .8.8 2.7 1.8 4.1 1 1.5 1.9 4 2.1 5.7.1 1.6.7 3.4 1.2 4 .5.5.9 1.5.9 2.3 0 2.9 9.5 10 13.4 10 .5 0 1.2.5 1.6 1.2.7 1.1 3.4 1.6 6 .9.8-.2 1.4.1 1.3.7-.1.6.4 1.1 1.2 1.1.7 0 1.1-.6.8-1.3-.2-.6 0-1.4.4-1.7.5-.3 1 .8 1.1 2.4.2 1.9-.2 2.8-.8 2.4-.5-.3-1-.2-1 .4 0 .5-1.4 2.3-3.1 4-1.7 1.7-3.2 3.7-3.3 4.4-.2 1.5-4.1 7.1-7.2 10.6-1.2 1.3-2 3-1.7 3.7.3.8.1 1.4-.4 1.4s-1.8 1.9-2.8 4.2c-1.5 3.3-1.9 6.4-1.8 12.8.2 10.5.7 13.7 2.9 16.1.9 1.1 1.4 1.9 1 1.9-.4 0 .5 1.2 1.9 2.7 1.4 1.5 2.5 3.1 2.5 3.5 0 .5.5.8 1 .8.6 0 2.3 1.2 3.9 2.7 1.6 1.6 5.1 3.9 7.8 5.3 2.6 1.4 5.1 2.9 5.4 3.3.3.5 1 .9 1.5.9s1.9.4 3.2.9c1.3.5 3.1.9 4 .9 1 0 4.2.9 7.2 2 8 3 8.7 3.1 24.2 4.3.9.1 1.5.4 1.3.7-.2.4.5 1.4 1.7 2.4 1.7 1.5 2.2 1.6 2.9.5.7-1.2.9-1.2.9 0 0 .7.6 1.1 1.5.7.8-.3 1.5-.1 1.5.4 0 .6.9.6 2.5 0s2.6-.6 3.1.1c.4.6 1.1.6 2-.2.8-.6 1.4-.8 1.4-.3s.5.1 1.1-.9c.6-.9 1.4-1.5 2-1.2.5.4.9.2.9-.2 0-.5.7-1.8 1.6-2.9.8-1 1.2-1.3.8-.5-.4.9-.2 1.2.7.9.8-.2 1.5-1.7 1.7-3.1.2-1.6.9-2.7 1.9-2.7 1 0 1.3-.6.9-1.6s-.2-1.3.6-.8.9.2.4-1.1c-.5-1.4-.4-1.6.7-.7 1 .9 1.4.8 1.4-.3 0-.8-.5-1.5-1-1.5-2 0 .3-1.3 2.7-1.5 1.5-.2 2.7.3 3 1.2.5 1.1.2 1.3-1 .9-1.5-.6-1.5-.4-.3 1.1 1.3 1.5 1.2 1.6-.6.9-1.8-.6-1.7-.5.3 1.5 1.8 1.6 2.1 2.4 1.1 2.9-.7.5-1.8.6-2.6.3-.7-.3-1.3 0-1.3.7 0 .6-.4.8-1 .5-.6-.3-.7.1-.4.9.3.9.1 1.6-.5 1.6s-1.1.5-1.1 1.1c0 .6-.9 2.3-1.9 3.8-1.1 1.5-2.3 3.9-2.6 5.4-.4 1.5-1.1 2.7-1.5 2.7-.4 0-1 1.4-1.2 3.1l-.5 3 2.3-2.8c1.3-1.5 2.3-3.2 2.4-3.7 0-.5.7-1.4 1.6-2 .8-.6 1.6-1.8 1.8-2.6.1-.8 1-3.5 2-6 1.2-3.3 2.3-4.6 3.8-4.7 1.1-.1 1.8.1 1.5.4-.8.7 1.6 3.2 2.6 2.6.4-.2.7-.1.6.4-.4 2.4.3 4.3 1.7 4.3.8 0 1.3.4 1 .9-.8 1.2 1.5 3 4.3 3.4 1.3.2 2.6.9 3.1 1.7.4.7 1.3.9 1.9.6.6-.4 1.1-.2 1.1.3 0 .6.5 1.1 1.1 1.1.6 0 2.4 1.4 4.1 3 1.6 1.7 3.8 3 4.8 3s2.2.4 2.5 1c.3.5 1.5 1 2.6 1 1 0 1.9.4 1.9.9s4.4.8 9.8.7c10.4-.2 21.8-2.8 20.6-4.8-.4-.6-.2-.8.4-.5 1.3.9 4.4-.2 3.7-1.4-.3-.4.3-1.3 1.3-1.8 1.1-.6 2.5-2.4 3.2-4.1.7-1.6 1.6-3 2.1-3s.9-.5.9-1.1c0-.5.9-2.9 1.9-5.2 2.2-4.9 4.5-15.3 3.7-16.6-.4-.5-.3-1.2.2-1.5.6-.4.9-7.1.2-7.1-.5 0-1.3-4.5-1.3-8.3-.1-2.3-.6-4.2-1.2-4.2-.5 0-.3-.5.5-1 1.3-.9 1.3-1 0-1s-1.3-.1 0-1c1.1-.7 1.1-1 .2-1-.7 0-1.1-.4-.8-.8.2-.4.1-1.4-.4-2.2-.5-.9-.4-2 .3-2.9 1-1.2.9-1.3-.3-.6-1.2.7-1.3.6-.2-.6s1.6-1 3.3 1.1c1.2 1.4 1.8 1.9 1.4 1.2-.7-1.3 1.1-1.7 1.9-.4 2.1 3.4 16.6-1.6 16.6-5.7 0-.5.6-1.4 1.4-1.8.8-.4 1.6-1.4 1.8-2.2.3-1.2 2.3-3.8 7.3-9.2.8-.9 1.5-1.9 1.5-2.4 0-.4 1.2-2.2 2.8-4l5.5-6.6c1.6-1.9 2.8-3.8 2.7-4.3-.1-.5.2-1.2.7-1.5.6-.3 2.5-3 4.5-5.8 1.9-2.9 3.7-5.1 3.9-4.8.3.2.6-.6.6-1.8.1-1.2.8-2.6 1.6-3.2.8-.5 1.9-2.7 2.6-4.8.7-2 1.6-3.5 2-3.3.4.3.6-1 .6-2.7 0-1.8.2-3.7.4-4.2.3-.6.7-1.5.8-2 2.4-9.4 2.3-18.3-.4-20.2-.9-.7-1.3-1.3-.7-1.3.5 0-1.7-1.4-4.8-3-7.5-4-15.9-5.1-34.8-4.5-14.7.5-24.5 1.1-24.5 1.5 0 .1-1.3.4-3 .5-5.1.5-9.8 1.5-15 3.2-2.7 1-5.2 1.8-5.5 1.8-.3.1-1.8.7-3.3 1.3-1.6.7-3 1.2-3.3 1.2-.3 0-1.4.9-2.6 2-2.8 2.6-3.5 2.5-3.3-.2.1-1.3-.5-2.9-1.3-3.7-1.3-1.3-1.1-1.8 1.4-3.7 1.5-1.3 3.1-2.1 3.6-1.8.4.3.8 0 .8-.7s-1-.9-2.9-.6c-2.7.6-2.8.4-2.5-2.4.2-1.7.5-3.4.7-3.7.2-.4-.2-2.5-.9-4.7s-1.3-3.4-1.3-2.8c-.1.7-.7 1.3-1.4 1.3-1.7 0-4.9 3.4-4.1 4.3.4.4-.1.9-1 1.3-.9.3-1.4 1-1.1 1.4.3.5-.2 1.6-1.1 2.4-.8.9-1.2 1.6-.7 1.6.4 0-.3.7-1.5 1.6-2.1 1.4-2.3 1.3-4.7-1.3-1.5-1.7-2.3-2.1-1.9-1.1.3 1 1 1.8 1.4 1.8 2.3 0 1.6 3.4-1.4 6.6-3.3 3.5-3.5 3.6-5.7 2-1.3-.9-1.9-1.6-1.4-1.6 1.5 0-6.5-7.8-14.1-13.6-3.9-2.9-7.6-5.4-8.3-5.4-.6 0-1.1-.3-1.1-.8 0-.4-1.5-1.5-3.3-2.6-1.7-1-4.8-2.8-6.7-3.9-1.9-1.1-5.3-3-7.5-4.2-2.2-1.2-6.3-3.6-9-5.2-8.1-4.8-27.3-13.6-34.5-15.9-2.5-.8-5.9-1.9-7.7-2.5-1.8-.5-4.1-1.2-5.3-1.4-1.1-.3-2.9-.7-4-.9-1.1-.3-2.4-.7-2.9-1-2.9-1.8-21.7-2.7-24.6-1.2z"/><path d="M105 31.6c0 .3 5.4 6 12 12.6s12 11.7 12 11.3c0-.3 1.7 1 3.8 2.9 8.3 8 13.7 12.6 14.5 12.6.9 0-4.7-5.5-16.5-16.2-8-7.2-9.7-9-12.8-12.8-4.4-5.6-7.4-8.7-9.7-9.9-2.4-1.2-3.3-1.4-3.3-.5zM170.9 51.7c-1.3 1.6-1.2 1.7.4.4.9-.7 1.7-1.5 1.7-1.7 0-.8-.8-.3-2.1 1.3zM168.2 54.6c.4.3.2 1.9-.2 3.5-.6 1.8-.5 3.1.2 3.5.7.4.8.2.4-.4-.4-.7-.3-1.2.3-1.2s.8-.7.5-1.5c-.4-.9.1-1.8 1.1-2.1 1.3-.5 1.4-.9.3-1.5-1.5-1-3.4-1.2-2.6-.3zM221.1 66.4c-4.9 1.6-8.8 3.3-8.6 3.6.3.4 3.5.1 7.2-.7 3.7-.8 7.7-1.6 8.8-1.8 1.1-.2 2.1-.4 2.3-.5.3-.4 2-.7 3.7-.9.8 0 1.5-.7 1.5-1.5 0-2.2-4.9-1.7-14.9 1.8zM147.8 72.7c.7.3 1.6.2 1.9-.1.4-.3-.2-.6-1.3-.5-1.1 0-1.4.3-.6.6zM183 75c0 .5.5 1 1.1 1 .5 0 .7-.5.4-1-.3-.6-.8-1-1.1-1-.2 0-.4.4-.4 1zM179.5 76c-.3.5-.1 1 .4 1 .6 0 1.1-.5 1.1-1 0-.6-.2-1-.4-1-.3 0-.8.4-1.1 1z"/></svg>